<svg width="512" height="512" viewBox="0 0 512 512" fill="none" xmlns="http://www.w3.org/2000/svg">
<g clip-path="url(#clip0_1987_8)">
<path d="M512 256C512 397.385 397.385 512 256 512C114.615 512 0 397.385 0 256C0 114.615 114.615 0 256 0C397.385 0 512 114.615 512 256Z" fill="white"/>
<path d="M504 256C504 119.033 392.967 8 256 8C119.033 8 8 119.033 8 256C8 392.967 119.033 504 256 504V512C114.615 512 0 397.385 0 256C0 114.615 114.615 0 256 0C397.385 0 512 114.615 512 256C512 397.385 397.385 512 256 512V504C392.967 504 504 392.967 504 256Z" fill="#E6E6E6"/>
<path d="M389.5 187.55C389.5 183.065 387.115 177.441 382.329 172.667C377.545 167.895 371.893 165.5 367.363 165.5H144.637C138.595 165.5 132.999 167.524 129.093 170.988C125.438 174.23 122.5 179.375 122.5 187.55V309.013C122.5 313.498 124.885 319.121 129.671 323.896C134.455 328.668 140.107 331.062 144.637 331.062H216.991L255.954 369.931L294.918 331.062H367.363C371.893 331.062 377.545 328.668 382.329 323.896C387.115 319.121 389.5 313.498 389.5 309.013V187.55ZM416.5 309.013C416.5 322.302 409.976 334.454 401.398 343.011C392.819 351.57 380.651 358.062 367.363 358.062H306.082L255.954 408.068L205.827 358.062H144.637C131.349 358.062 119.181 351.57 110.602 343.011C102.024 334.454 95.5001 322.302 95.5 309.013V187.55C95.5001 172.025 101.472 159.396 111.18 150.787C120.637 142.401 132.86 138.5 144.637 138.5H367.363C380.651 138.5 392.819 144.993 401.398 153.552C409.976 162.109 416.5 174.26 416.5 187.55V309.013Z" fill="#18181B"/>
<path d="M283 248C283 262.912 270.912 275 256 275C241.088 275 229 262.912 229 248C229 233.088 241.088 221 256 221C270.912 221 283 233.088 283 248Z" fill="#18181B"/>
</g>
<defs>
<clipPath id="clip0_1987_8">
<rect width="512" height="512" fill="white"/>
</clipPath>
</defs>
</svg>
